<svg xmlns="http://www.w3.org/2000/svg" xmlns:xlink="http://www.w3.org/1999/xlink" contentStyleType="text/css" height="162px" preserveAspectRatio="none" style="width:408px;height:162px;background:#FFFFFF;" version="1.1" viewBox="0 0 408 162" width="408px" zoomAndPan="magnify"><defs/><g><rect fill="#F1F1F1" height="81.1875" rx="5" ry="5" style="stroke:#F1F1F1;stroke-width:1.5;" width="158.6328" x="10" y="68.9063"/><text fill="#000000" font-family="sans-serif" font-size="14" font-weight="bold" lengthAdjust="spacing" textLength="120.8184" x="15" y="83.9014">playerNumbers</text><text fill="#000000" font-family="sans-serif" font-size="14" lengthAdjust="spacing" textLength="13.3506" x="145.8184" y="83.9014">&#160;&#160;&#160;</text><line style="stroke:#000000;stroke-width:1.0;" x1="140.8184" x2="140.8184" y1="68.9063" y2="89.2031"/><line style="stroke:#000000;stroke-width:1.0;" x1="10" x2="168.6328" y1="89.2031" y2="89.2031"/><text fill="#000000" font-family="sans-serif" font-size="14" font-weight="bold" lengthAdjust="spacing" textLength="57.2031" x="15" y="104.1982">section</text><text fill="#000000" font-family="sans-serif" font-size="14" lengthAdjust="spacing" textLength="17.8145" x="145.8184" y="104.1982">99</text><line style="stroke:#000000;stroke-width:1.0;" x1="140.8184" x2="140.8184" y1="89.2031" y2="109.5"/><line style="stroke:#000000;stroke-width:1.0;" x1="10" x2="168.6328" y1="109.5" y2="109.5"/><text fill="#000000" font-family="sans-serif" font-size="14" font-weight="bold" lengthAdjust="spacing" textLength="40.4551" x="15" y="124.4951">table</text><text fill="#000000" font-family="sans-serif" font-size="14" lengthAdjust="spacing" textLength="17.8145" x="145.8184" y="124.4951">99</text><line style="stroke:#000000;stroke-width:1.0;" x1="140.8184" x2="140.8184" y1="109.5" y2="129.7969"/><line style="stroke:#000000;stroke-width:1.0;" x1="10" x2="168.6328" y1="129.7969" y2="129.7969"/><text fill="#000000" font-family="sans-serif" font-size="14" font-weight="bold" lengthAdjust="spacing" textLength="46.4775" x="15" y="144.792">round</text><text fill="#000000" font-family="sans-serif" font-size="14" lengthAdjust="spacing" textLength="17.8145" x="145.8184" y="144.792">99</text><line style="stroke:#000000;stroke-width:1.0;" x1="140.8184" x2="140.8184" y1="129.7969" y2="150.0938"/><rect fill="none" height="81.1875" rx="5" ry="5" style="stroke:#000000;stroke-width:1.5;" width="158.6328" x="10" y="68.9063"/><rect fill="#F1F1F1" height="40.5938" rx="5" ry="5" style="stroke:#F1F1F1;stroke-width:1.5;" width="23.3506" x="206" y="59"/><text fill="#000000" font-family="sans-serif" font-size="14" lengthAdjust="spacing" textLength="13.3506" x="211" y="73.9951">&#160;&#160;&#160;</text><line style="stroke:#000000;stroke-width:1.0;" x1="206" x2="229.3506" y1="79.2969" y2="79.2969"/><text fill="#000000" font-family="sans-serif" font-size="14" lengthAdjust="spacing" textLength="13.3506" x="211" y="94.292">&#160;&#160;&#160;</text><rect fill="none" height="40.5938" rx="5" ry="5" style="stroke:#000000;stroke-width:1.5;" width="23.3506" x="206" y="59"/><rect fill="#F1F1F1" height="60.8906" rx="5" ry="5" style="stroke:#F1F1F1;stroke-width:1.5;" width="130.2979" x="266" y="10"/><text fill="#000000" font-family="sans-serif" font-size="14" font-weight="bold" lengthAdjust="spacing" textLength="70.5947" x="271" y="24.9951">direction</text><text fill="#000000" font-family="sans-serif" font-size="14" lengthAdjust="spacing" textLength="10.4727" x="351.5947" y="24.9951">N</text><line style="stroke:#000000;stroke-width:1.0;" x1="346.5947" x2="346.5947" y1="10" y2="30.2969"/><line style="stroke:#000000;stroke-width:1.0;" x1="266" x2="396.2979" y1="30.2969" y2="30.2969"/><text fill="#000000" font-family="sans-serif" font-size="14" font-weight="bold" lengthAdjust="spacing" textLength="60.9424" x="271" y="45.292">number</text><text fill="#000000" font-family="sans-serif" font-size="14" lengthAdjust="spacing" textLength="13.959" x="351.5947" y="45.292">-1</text><line style="stroke:#000000;stroke-width:1.0;" x1="346.5947" x2="346.5947" y1="30.2969" y2="50.5938"/><line style="stroke:#000000;stroke-width:1.0;" x1="266" x2="396.2979" y1="50.5938" y2="50.5938"/><text fill="#000000" font-family="sans-serif" font-size="14" font-weight="bold" lengthAdjust="spacing" textLength="43.4971" x="271" y="65.5889">name</text><text fill="#000000" font-family="sans-serif" font-size="14" lengthAdjust="spacing" textLength="39.7031" x="351.5947" y="65.5889">name</text><line style="stroke:#000000;stroke-width:1.0;" x1="346.5947" x2="346.5947" y1="50.5938" y2="70.8906"/><rect fill="none" height="60.8906" rx="5" ry="5" style="stroke:#000000;stroke-width:1.5;" width="130.2979" x="266" y="10"/><rect fill="#F1F1F1" height="60.8906" rx="5" ry="5" style="stroke:#F1F1F1;stroke-width:1.5;" width="130.2979" x="266" y="89"/><text fill="#000000" font-family="sans-serif" font-size="14" font-weight="bold" lengthAdjust="spacing" textLength="70.5947" x="271" y="103.9951">direction</text><text fill="#000000" font-family="sans-serif" font-size="14" lengthAdjust="spacing" textLength="8.8867" x="351.5947" y="103.9951">S</text><line style="stroke:#000000;stroke-width:1.0;" x1="346.5947" x2="346.5947" y1="89" y2="109.2969"/><line style="stroke:#000000;stroke-width:1.0;" x1="266" x2="396.2979" y1="109.2969" y2="109.2969"/><text fill="#000000" font-family="sans-serif" font-size="14" font-weight="bold" lengthAdjust="spacing" textLength="60.9424" x="271" y="124.292">number</text><text fill="#000000" font-family="sans-serif" font-size="14" lengthAdjust="spacing" textLength="4.4502" x="351.5947" y="124.292">&#160;</text><line style="stroke:#000000;stroke-width:1.0;" x1="346.5947" x2="346.5947" y1="109.2969" y2="129.5938"/><line style="stroke:#000000;stroke-width:1.0;" x1="266" x2="396.2979" y1="129.5938" y2="129.5938"/><text fill="#000000" font-family="sans-serif" font-size="14" font-weight="bold" lengthAdjust="spacing" textLength="43.4971" x="271" y="144.5889">name</text><text fill="#000000" font-family="sans-serif" font-size="14" lengthAdjust="spacing" textLength="39.7031" x="351.5947" y="144.5889">name</text><line style="stroke:#000000;stroke-width:1.0;" x1="346.5947" x2="346.5947" y1="129.5938" y2="149.8906"/><rect fill="none" height="60.8906" rx="5" ry="5" style="stroke:#000000;stroke-width:1.5;" width="130.2979" x="266" y="89"/><path d="M217,69.5 L230,69.5 C239.5509,69.5 249.4193,68.276 259.0716,66.3309 " fill="none" style="stroke:#000000;stroke-width:1.0;stroke-dasharray:3.0,3.0;"/><path d="M259.7195,69.263 L261.2707,65.845 L258.4238,63.3988 L266.4018,64.7112 L259.7195,69.263 " fill="#000000" style="stroke:#000000;stroke-width:1.0;"/><ellipse cx="217" cy="69.5" fill="#000000" rx="3" ry="3" style="stroke:#000000;stroke-width:1.0;"/><path d="M217,89.5 L230,89.5 C239.5766,89.5 249.4602,90.7662 259.1203,92.7784 " fill="none" style="stroke:#000000;stroke-width:1.0;stroke-dasharray:3.0,3.0;"/><path d="M258.4501,95.7123 L261.3208,93.281 L259.7905,89.8445 L266.4552,94.4539 L258.4501,95.7123 " fill="#000000" style="stroke:#000000;stroke-width:1.0;"/><ellipse cx="217" cy="89.5" fill="#000000" rx="3" ry="3" style="stroke:#000000;stroke-width:1.0;"/><path d="M157,79.5 L170,79.5 C179.399,79.5 189.8552,79.5 198.5144,79.5 " fill="none" style="stroke:#000000;stroke-width:1.0;stroke-dasharray:3.0,3.0;"/><path d="M198.5144,82.5633 L200.8119,79.5 L198.5144,76.4367 L206.1727,79.5 L198.5144,82.5633 " fill="#000000" style="stroke:#000000;stroke-width:1.0;"/><ellipse cx="157" cy="79.5" fill="#000000" rx="3" ry="3" style="stroke:#000000;stroke-width:1.0;"/><!--SRC=[TOz1Qy9048NFcLynvAHW9B4YcfDKsq8QhPZgfVImIQPXIpAHpMv0Yl-zcu3sqFQqpFVclTctRBHG-hEf6Rx0SK-bE9FQcYebrRWXle7ZMEuuRYuLPLhMRAcxTKSzv7wn8rvmHQAY3lIl9PVHtn79huZ_0i1vjuhRtBoBHJThaPPqcrHjEEydkC2IEEyhmQuKh0-R65lRnxen64_yoNGy6oH2OsHAz6VeBy9W6jxDyV2wmauUmk1f5sDJ6vKHvhBHIgQckpw4IBG2zuQrh2Z4bnDnj7w-0dpWLggQAs8DqN7pip2RUlTIOqBA_WIF6rZJXp2bjewipYKNeRt-wCqX5bmOKTXiObZPLbgThPPy0m00]--></g></svg>