<svg xmlns="http://www.w3.org/2000/svg" xmlns:xlink="http://www.w3.org/1999/xlink" contentStyleType="text/css" height="69px" preserveAspectRatio="none" style="width:403px;height:69px;background:#FFFFFF;" version="1.1" viewBox="0 0 403 69" width="403px" zoomAndPan="magnify"><defs/><g><!--entity server--><g id="elem_server"><path d="M328.3349,15.0222 C332.4041,6.433 338.847,7.1442 344.5339,13.2375 C348.6285,6.6702 353.6285,7.948 357.5528,13.4217 C363.0219,6 369.7031,7.1375 373.4503,15.1905 C377.6211,10.0039 383.6138,9.2633 386.7775,16.2895 C395.8749,18.667 396.66,24.0507 390.7062,30.5691 C395.5373,36.6944 395.9794,41.2921 387.9655,44.9733 C384.223,52.4143 379.3091,53.8704 373.0563,47.7286 C370.0161,55.4672 363.5594,55.4354 358.4357,50.0495 C353.4594,56.1021 346.0749,55.6844 343.759,47.3378 C339.3029,53.5912 333.8576,52.8629 329.9284,46.7487 C319.9658,43.9326 318.2643,38.3415 325.307,30.6452 C318.0956,23.6761 319.4489,18.8714 328.3349,15.0222 " fill="#F1F1F1" style="stroke:#181818;stroke-width:0.5;"/><text fill="#000000" font-family="sans-serif" font-size="14" lengthAdjust="spacing" textLength="44.3174" x="334.91" y="34.6682">server</text></g><!--entity screens--><g id="elem_screens"><rect fill="#F1F1F1" height="36.2969" rx="2.5" ry="2.5" style="stroke:#181818;stroke-width:0.5;" width="74.1406" x="7" y="11.6731"/><text fill="#000000" font-family="sans-serif" font-size="14" lengthAdjust="spacing" textLength="54.1406" x="17" y="34.6682">screens</text></g><!--entity asyncStorage--><g id="elem_asyncStorage"><path d="M116.32,17.1731 C116.32,7.1731 174.0724,7.1731 174.0724,7.1731 C174.0724,7.1731 231.8249,7.1731 231.8249,17.1731 L231.8249,42.47 C231.8249,52.47 174.0724,52.47 174.0724,52.47 C174.0724,52.47 116.32,52.47 116.32,42.47 L116.32,17.1731 " fill="#F1F1F1" style="stroke:#181818;stroke-width:0.5;"/><path d="M116.32,17.1731 C116.32,27.1731 174.0724,27.1731 174.0724,27.1731 C174.0724,27.1731 231.8249,27.1731 231.8249,17.1731 " fill="none" style="stroke:#181818;stroke-width:0.5;"/><text fill="#000000" font-family="sans-serif" font-size="14" lengthAdjust="spacing" textLength="95.5049" x="126.32" y="44.1682">asyncStorage</text></g><!--entity api--><g id="elem_api"><ellipse cx="276.07" cy="29.8231" fill="#F1F1F1" rx="8" ry="8" style="stroke:#181818;stroke-width:0.5;"/><text fill="#000000" font-family="sans-serif" font-size="14" lengthAdjust="spacing" textLength="21.3555" x="265.3923" y="59.8182">api</text></g><!--link api to server--><g id="link_api_server"><path d="M285.56,29.8231 C296.92,29.8231 302.28,29.8231 313.64,29.8231 " fill="none" id="api-to-server" style="stroke:#181818;stroke-width:1.0;"/><polygon fill="#181818" points="319.64,29.8231,310.64,25.8231,314.64,29.8231,310.64,33.8231,319.64,29.8231" style="stroke:#181818;stroke-width:1.0;"/></g><!--link asyncStorage to api--><g id="link_asyncStorage_api"><path d="M232.24,29.8231 C243.77,29.8231 249.3,29.8231 260.83,29.8231 " fill="none" id="asyncStorage-to-api" style="stroke:#181818;stroke-width:1.0;"/><polygon fill="#181818" points="266.83,29.8231,257.83,25.8231,261.83,29.8231,257.83,33.8231,266.83,29.8231" style="stroke:#181818;stroke-width:1.0;"/></g><!--link screens to asyncStorage--><g id="link_screens_asyncStorage"><path d="M81.39,29.8231 C92.98,29.8231 98.56,29.8231 110.15,29.8231 " fill="none" id="screens-to-asyncStorage" style="stroke:#181818;stroke-width:1.0;"/><polygon fill="#181818" points="116.15,29.8231,107.15,25.8231,111.15,29.8231,107.15,33.8231,116.15,29.8231" style="stroke:#181818;stroke-width:1.0;"/></g><!--SRC=[Iyx9BqrHA4ujAaijuafCJyqhKIXEBafDpIlcIaaiIKnAB4vLI2okp4iEBial0ifp9HPaAkZQmNKWIO64WR9SKFrWBf8q0000]--></g></svg>