<svg xmlns="http://www.w3.org/2000/svg" xmlns:xlink="http://www.w3.org/1999/xlink" contentStyleType="text/css" height="726px" preserveAspectRatio="none" style="width:937px;height:726px;background:#FFFFFF;" version="1.1" viewBox="0 0 937 726" width="937px" zoomAndPan="magnify"><defs/><g><!--cluster B--><g id="cluster_B"><path d="M326.91,49.05 L496.91,49.05 A12.5,12.5 0 0 1 509.41,61.55 L509.41,70.3469 L314.41,70.3469 L314.41,61.55 A12.5,12.5 0 0 1 326.91,49.05 " fill="#F1F1F1" style="stroke:#F1F1F1;stroke-width:1.0;"/><rect fill="none" height="101" rx="12.5" ry="12.5" style="stroke:#181818;stroke-width:0.5;" width="195" x="314.41" y="49.05"/><line style="stroke:#181818;stroke-width:0.5;" x1="314.41" x2="509.41" y1="70.3469" y2="70.3469"/><text fill="#000000" font-family="sans-serif" font-size="14" lengthAdjust="spacing" textLength="75.3047" x="374.41" y="66.0451">befor login</text></g><g id="B.B1"><rect fill="#F1F1F1" height="50" rx="12.5" ry="12.5" style="stroke:#181818;stroke-width:0.5;" width="54.1045" x="330.36" y="84.05"/><line style="stroke:#181818;stroke-width:0.5;" x1="330.36" x2="384.4645" y1="110.3469" y2="110.3469"/><text fill="#000000" font-family="sans-serif" font-size="14" lengthAdjust="spacing" textLength="34.1045" x="340.36" y="102.0451">login</text></g><g id="B.B2"><rect fill="#F1F1F1" height="50" rx="12.5" ry="12.5" style="stroke:#181818;stroke-width:0.5;" width="74.2979" x="419.26" y="84.05"/><line style="stroke:#181818;stroke-width:0.5;" x1="419.26" x2="493.5579" y1="110.3469" y2="110.3469"/><text fill="#000000" font-family="sans-serif" font-size="14" lengthAdjust="spacing" textLength="54.2979" x="429.26" y="102.0451">register</text></g><g id="A1"><rect fill="#F1F1F1" height="50" rx="12.5" ry="12.5" style="stroke:#181818;stroke-width:0.5;" width="59.6895" x="327.57" y="250.2"/><line style="stroke:#181818;stroke-width:0.5;" x1="327.57" x2="387.2595" y1="276.4969" y2="276.4969"/><text fill="#000000" font-family="sans-serif" font-size="14" lengthAdjust="spacing" textLength="39.6895" x="337.57" y="268.1951">home</text></g><g id="A3"><rect fill="#F1F1F1" height="50" rx="12.5" ry="12.5" style="stroke:#181818;stroke-width:0.5;" width="83.4307" x="422.7" y="250.2"/><line style="stroke:#181818;stroke-width:0.5;" x1="422.7" x2="506.1307" y1="276.4969" y2="276.4969"/><text fill="#000000" font-family="sans-serif" font-size="14" lengthAdjust="spacing" textLength="63.4307" x="432.7" y="268.1951">code join</text></g><path d="M783.28,59.9 L911.54,59.9 A12.5,12.5 0 0 1 924.04,72.4 L924.04,86.1969 L770.78,86.1969 L770.78,72.4 A12.5,12.5 0 0 1 783.28,59.9 " fill="#F1F1F1" style="stroke:#F1F1F1;stroke-width:1.0;"/><rect fill="none" height="98.2969" rx="12.5" ry="12.5" style="stroke:#181818;stroke-width:0.5;" width="153.26" x="770.78" y="59.9"/><line style="stroke:#181818;stroke-width:0.5;" x1="770.78" x2="924.04" y1="86.1969" y2="86.1969"/><text fill="#000000" font-family="sans-serif" font-size="14" lengthAdjust="spacing" textLength="55.8291" x="819.4954" y="77.8951">settings</text><g id="C.C1"><rect fill="#F1F1F1" height="50" rx="12.5" ry="12.5" style="stroke:#181818;stroke-width:0.5;" width="64.5293" x="782.78" y="98.1969"/><line style="stroke:#181818;stroke-width:0.5;" x1="782.78" x2="847.3093" y1="124.4937" y2="124.4937"/><text fill="#000000" font-family="sans-serif" font-size="14" lengthAdjust="spacing" textLength="44.5293" x="792.78" y="116.192">profile</text></g><g id="C.C2"><rect fill="#F1F1F1" height="50" rx="12.5" ry="12.5" style="stroke:#181818;stroke-width:0.5;" width="50" x="865.04" y="98.1969"/><line style="stroke:#181818;stroke-width:0.5;" x1="865.04" x2="915.04" y1="124.4937" y2="124.4937"/><text fill="#000000" font-family="sans-serif" font-size="14" lengthAdjust="spacing" textLength="26.3525" x="876.8637" y="116.192">app</text></g><ellipse cx="538.41" cy="109.05" fill="#222222" rx="10" ry="10" style="stroke:#222222;stroke-width:1.0;"/><g id="A4"><rect fill="#F1F1F1" height="64.2344" rx="12.5" ry="12.5" style="stroke:#181818;stroke-width:0.5;" width="329.9258" x="499.45" y="394.23"/><line style="stroke:#181818;stroke-width:0.5;" x1="499.45" x2="829.3758" y1="420.5269" y2="420.5269"/><text fill="#000000" font-family="sans-serif" font-size="14" lengthAdjust="spacing" textLength="96.667" x="616.0794" y="412.2251">input yourself</text><text fill="#000000" font-family="sans-serif" font-size="12" lengthAdjust="spacing" textLength="164.209" x="504.45" y="436.6655">you add  table and position</text><text fill="#000000" font-family="sans-serif" font-size="12" lengthAdjust="spacing" textLength="309.9258" x="504.45" y="450.6343">add name, cid, ect when you as a guest (for future)</text></g><path d="M225.02,536.49 L529.7961,536.49 A12.5,12.5 0 0 1 542.2961,548.99 L542.2961,562.7869 L212.52,562.7869 L212.52,548.99 A12.5,12.5 0 0 1 225.02,536.49 " fill="#F1F1F1" style="stroke:#F1F1F1;stroke-width:1.0;"/><rect fill="none" height="184.2969" rx="12.5" ry="12.5" style="stroke:#181818;stroke-width:0.5;" width="329.7761" x="212.52" y="536.49"/><line style="stroke:#181818;stroke-width:0.5;" x1="212.52" x2="542.2961" y1="562.7869" y2="562.7869"/><text fill="#000000" font-family="sans-serif" font-size="14" lengthAdjust="spacing" textLength="74.1836" x="340.3162" y="554.4851">turnament</text><g id="D.D0"><rect fill="#F1F1F1" height="50" rx="12.5" ry="12.5" style="stroke:#181818;stroke-width:0.5;" width="86.0625" x="336.27" y="574.7869"/><line style="stroke:#181818;stroke-width:0.5;" x1="336.27" x2="422.3325" y1="601.0838" y2="601.0838"/><text fill="#000000" font-family="sans-serif" font-size="14" lengthAdjust="spacing" textLength="66.0625" x="346.27" y="592.782">summary</text></g><g id="D.D1"><rect fill="#F1F1F1" height="50" rx="12.5" ry="12.5" style="stroke:#181818;stroke-width:0.5;" width="93.5615" x="224.52" y="660.7869"/><line style="stroke:#181818;stroke-width:0.5;" x1="224.52" x2="318.0815" y1="687.0838" y2="687.0838"/><text fill="#000000" font-family="sans-serif" font-size="14" lengthAdjust="spacing" textLength="73.5615" x="234.52" y="678.782">info recive</text></g><g id="D.D2"><rect fill="#F1F1F1" height="50" rx="12.5" ry="12.5" style="stroke:#181818;stroke-width:0.5;" width="87.1016" x="335.75" y="660.7869"/><line style="stroke:#181818;stroke-width:0.5;" x1="335.75" x2="422.8516" y1="687.0838" y2="687.0838"/><text fill="#000000" font-family="sans-serif" font-size="14" lengthAdjust="spacing" textLength="67.1016" x="345.75" y="678.782">movment</text></g><g id="D.D3"><rect fill="#F1F1F1" height="50" rx="12.5" ry="12.5" style="stroke:#181818;stroke-width:0.5;" width="91.9961" x="441.3" y="660.7869"/><line style="stroke:#181818;stroke-width:0.5;" x1="441.3" x2="533.2961" y1="687.0838" y2="687.0838"/><text fill="#000000" font-family="sans-serif" font-size="14" lengthAdjust="spacing" textLength="71.9961" x="451.3" y="678.782">input data</text></g><!--link D0 to D1--><g id="link_D0_D1"><path d="M354.25,625.0869 C340.67,636.2269 328.556,645.8418 313.476,656.9818 " fill="none" id="D0-to-D1" style="stroke:#181818;stroke-width:1.0;"/><polygon fill="#181818" points="308.65,660.5469,318.2657,658.4166,312.6717,657.576,313.5123,651.9819,308.65,660.5469" style="stroke:#181818;stroke-width:1.0;"/></g><!--link D0 to D2--><g id="link_D0_D2"><path d="M385.49,625.0869 C386.24,636.2269 386.6484,643.4208 385.8884,654.5608 " fill="none" id="D0-to-D2" style="stroke:#181818;stroke-width:1.0;"/><polygon fill="#181818" points="385.48,660.5469,390.0833,651.84,385.8203,655.5585,382.1019,651.2955,385.48,660.5469" style="stroke:#181818;stroke-width:1.0;"/></g><!--link D0 to D3--><g id="link_D0_D3"><path d="M416.72,625.0869 C431.81,636.2269 444.1125,645.5998 457.6825,656.7398 " fill="none" id="D0-to-D3" style="stroke:#181818;stroke-width:1.0;"/><polygon fill="#181818" points="462.32,660.5469,457.9018,651.7446,458.4554,657.3743,452.8257,657.928,462.32,660.5469" style="stroke:#181818;stroke-width:1.0;"/></g><!--reverse link D0 to D1--><g id="link_D0_D1"><path d="M337.0529,628.6504 C321.9629,639.7904 309.85,649.4069 296.29,660.5469 " fill="none" id="D0-backto-D1" style="stroke:#181818;stroke-width:1.0;"/><polygon fill="#181818" points="341.88,625.0869,332.2636,627.2141,337.8574,628.0565,337.015,633.6503,341.88,625.0869" style="stroke:#181818;stroke-width:1.0;"/></g><!--reverse link D0 to D2--><g id="link_D0_D2"><path d="M372.707,631.0733 C371.957,642.2133 372.36,649.4069 373.12,660.5469 " fill="none" id="D0-backto-D2" style="stroke:#181818;stroke-width:1.0;"/><polygon fill="#181818" points="373.11,625.0869,368.5145,633.7979,372.7741,630.0756,376.4964,634.3352,373.11,625.0869" style="stroke:#181818;stroke-width:1.0;"/></g><!--reverse link D0 to D3--><g id="link_D0_D3"><path d="M408.9889,628.8923 C422.5689,640.0323 434.87,649.4069 449.95,660.5469 " fill="none" id="D0-backto-D3" style="stroke:#181818;stroke-width:1.0;"/><polygon fill="#181818" points="404.35,625.0869,408.7714,633.8875,408.2157,628.258,413.8452,627.7024,404.35,625.0869" style="stroke:#181818;stroke-width:1.0;"/></g><path d="M19.5,377.2 L275.322,377.2 A12.5,12.5 0 0 1 287.822,389.7 L287.822,403.4969 L7,403.4969 L7,389.7 A12.5,12.5 0 0 1 19.5,377.2 " fill="#F1F1F1" style="stroke:#F1F1F1;stroke-width:1.0;"/><rect fill="none" height="98.2969" rx="12.5" ry="12.5" style="stroke:#181818;stroke-width:0.5;" width="280.822" x="7" y="377.2"/><line style="stroke:#181818;stroke-width:0.5;" x1="7" x2="287.822" y1="403.4969" y2="403.4969"/><text fill="#000000" font-family="sans-serif" font-size="14" lengthAdjust="spacing" textLength="43.8662" x="125.4779" y="395.1951">admin</text><g id="E.E1"><rect fill="#F1F1F1" height="50" rx="12.5" ry="12.5" style="stroke:#181818;stroke-width:0.5;" width="123.5576" x="19" y="415.4969"/><line style="stroke:#181818;stroke-width:0.5;" x1="19" x2="142.5576" y1="441.7938" y2="441.7938"/><text fill="#000000" font-family="sans-serif" font-size="14" lengthAdjust="spacing" textLength="103.5576" x="29" y="433.492">Edit input data</text></g><g id="E.E2"><rect fill="#F1F1F1" height="50" rx="12.5" ry="12.5" style="stroke:#181818;stroke-width:0.5;" width="118.082" x="160.74" y="415.4969"/><line style="stroke:#181818;stroke-width:0.5;" x1="160.74" x2="278.822" y1="441.7938" y2="441.7938"/><text fill="#000000" font-family="sans-serif" font-size="14" lengthAdjust="spacing" textLength="98.082" x="170.74" y="433.492">Edit user data</text></g><!--link B1 to B2--><g id="link_B1_B2"><path d="M384.87,124.08 C396.23,127.91 401.699,129.8657 413.059,127.7757 " fill="none" id="B1-to-B2" style="stroke:#181818;stroke-width:1.0;"/><polygon fill="#181818" points="418.96,126.69,409.3848,124.3845,414.0425,127.5947,410.8323,132.2525,418.96,126.69" style="stroke:#181818;stroke-width:1.0;"/></g><!--link B2 to B1--><g id="link_B2_B1"><path d="M418.96,91.41 C407.6,89.31 401.914,88.2586 390.554,92.0986 " fill="none" id="B2-to-B1" style="stroke:#181818;stroke-width:1.0;"/><polygon fill="#181818" points="384.87,94.02,394.677,94.9273,389.6067,92.4189,392.1152,87.3486,384.87,94.02" style="stroke:#181818;stroke-width:1.0;"/></g><!--link B1 to A1--><g id="link_B1_A1"><path d="M357.41,134.27 C357.41,165.3 357.41,212.79 357.41,243.88 " fill="none" id="B1-to-A1" style="stroke:#181818;stroke-width:1.0;"/><polygon fill="#181818" points="357.41,249.88,361.41,240.88,357.41,244.88,353.41,240.88,357.41,249.88" style="stroke:#181818;stroke-width:1.0;"/><text fill="#000000" font-family="sans-serif" font-size="13" lengthAdjust="spacing" textLength="110.3286" x="358.41" y="201.2669">guest is consider</text><text fill="#000000" font-family="sans-serif" font-size="13" lengthAdjust="spacing" textLength="76.2544" x="377.5133" y="216.3997">a login user</text></g><!--link *start* to C--><g id="link_*start*_C"><path d="M548.69,109.05 C582.73,109.05 687.91,109.05 764.59,109.05 " fill="none" id="*start*-to-C" style="stroke:#181818;stroke-width:1.0;"/><polygon fill="#181818" points="770.59,109.05,761.59,105.05,765.59,109.05,761.59,113.05,770.59,109.05" style="stroke:#181818;stroke-width:1.0;"/><text fill="#000000" font-family="sans-serif" font-size="13" lengthAdjust="spacing" textLength="186.5322" x="566.6" y="102.1169">from close to all point in app</text></g><!--link C to B1--><g id="link_C_B1"><path d="M770.38,81.4 C710.8,61.56 625.79,36.54 548.91,26.05 C491.66,18.24 473.1,6 418.91,26.05 C393.34,35.51 378.9547,57.5332 369.4547,78.3132 " fill="none" id="C-to-B1" style="stroke:#181818;stroke-width:1.0;"/><polygon fill="#181818" points="366.96,83.77,374.3399,77.2479,369.0389,79.2227,367.0642,73.9217,366.96,83.77" style="stroke:#181818;stroke-width:1.0;"/></g><!--link A3 to A4--><g id="link_A3_A4"><path d="M496.99,300.49 C531.08,325.92 579.9306,362.3426 617.2806,390.2026 " fill="none" id="A3-to-A4" style="stroke:#181818;stroke-width:1.0;"/><polygon fill="#181818" points="622.09,393.79,617.2675,385.2026,618.0822,390.8005,612.4843,391.6151,622.09,393.79" style="stroke:#181818;stroke-width:1.0;"/></g><!--link A4 to D--><g id="link_A4_D"><path d="M619.25,458.86 C589.26,479.79 553.1397,504.9955 513.3897,532.7455 " fill="none" id="A4-to-D" style="stroke:#181818;stroke-width:1.0;"/><polygon fill="#181818" points="508.47,536.18,518.1393,534.308,512.5698,533.3179,513.5599,527.7484,508.47,536.18" style="stroke:#181818;stroke-width:1.0;"/></g><!--link A1 to A3--><g id="link_A1_A3"><path d="M387.5,290.36 C399.12,293.92 404.8063,295.7193 416.4163,293.9793 " fill="none" id="A1-to-A3" style="stroke:#181818;stroke-width:1.0;"/><polygon fill="#181818" points="422.35,293.09,412.8565,290.4681,417.4052,293.8311,414.0423,298.3798,422.35,293.09" style="stroke:#181818;stroke-width:1.0;"/></g><!--link A3 to A1--><g id="link_A3_A1"><path d="M422.35,257.3 C410.74,255.56 404.8554,254.7079 393.2354,258.2779 " fill="none" id="A3-to-A1" style="stroke:#181818;stroke-width:1.0;"/><polygon fill="#181818" points="387.5,260.04,397.2779,261.2205,392.2795,258.5716,394.9284,253.5733,387.5,260.04" style="stroke:#181818;stroke-width:1.0;"/></g><!--link D to A1--><g id="link_D_A1"><path d="M372.2,536.1 C367.71,457.17 361.8711,354.5603 359.1411,306.6203 " fill="none" id="D-to-A1" style="stroke:#181818;stroke-width:1.0;"/><polygon fill="#181818" points="358.8,300.63,355.3182,309.8429,359.0843,305.6219,363.3052,309.388,358.8,300.63" style="stroke:#181818;stroke-width:1.0;"/><text fill="#000000" font-family="sans-serif" font-size="13" lengthAdjust="spacing" textLength="105.3711" x="370.41" y="430.9069">exit tournament</text></g><!--link A1 to E--><g id="link_A1_E"><path d="M327.24,283.55 C298.52,291.6 255.1,306.61 223.41,330.2 C206.28,342.95 194.447,355.6552 182.027,372.1652 " fill="none" id="A1-to-E" style="stroke:#181818;stroke-width:1.0;"/><polygon fill="#181818" points="178.42,376.96,187.027,372.1725,181.4258,372.9644,180.6339,367.3632,178.42,376.96" style="stroke:#181818;stroke-width:1.0;"/><text fill="#000000" font-family="sans-serif" font-size="13" lengthAdjust="spacing" textLength="106.3296" x="224.41" y="343.2669">only for "admin"</text></g><!--SRC=[NL9DJyCm3BtdLrYzyA5DekjE4vfKklq2Zi0XDEuMr2PLaW8Juh_Zn1qBv1I_vzZFptaCCY0yWFHGl69d7VJse4tn9O2EPxPCD1CvlagumuFs0HrHbBdS4YuY5s-b-1OYeXJKvUOmeG-WFRJMUAtGFHkGt14cZqvSFQRATIeiEwhwguTxrgpbQ0Sipb2LeDOgX3SR9JBU9DXZ2DeS_9-96guoEjlf7lEP6fv9ZcD1qfzkNvRR1ZRGEJj0srkF42p8leUHEj4ef7ySpqBMwQqsunJWP2VdiU-uE4HoGnX8fG22VEqHf55KnkkWhScoKegH0owWrMe1s0RuEAA1zDoJOMpZTTnMDuN9uOrePhkZ6ydijOZ5wBeJqRG8LSnkQqhRpIkXTlYf0qqrkTZJX7cONPebd56sRwRksDbf6AGx5HbHpWPq5Xos-XrpafqTx7kgbn5LPfkIGIQEcaI5kp8FLdbGpS7zSdb9Iy4g3ohQ8pVQyshLyEz_xrdsNkcuq3ygpXchIqRyftF2jwZvQ-zXOqr_WhYHkS4F]--></g></svg>