<svg xmlns="http://www.w3.org/2000/svg" xmlns:xlink="http://www.w3.org/1999/xlink" contentStyleType="text/css" height="616px" preserveAspectRatio="none" style="width:836px;height:616px;background:#FFFFFF;" version="1.1" viewBox="0 0 836 616" width="836px" zoomAndPan="magnify"><defs/><g><!--cluster B--><g id="cluster_B"><path d="M537.91,61.82 L707.91,61.82 A12.5,12.5 0 0 1 720.41,74.32 L720.41,83.1169 L525.41,83.1169 L525.41,74.32 A12.5,12.5 0 0 1 537.91,61.82 " fill="#F1F1F1" style="stroke:#F1F1F1;stroke-width:1.0;"/><rect fill="none" height="120" rx="12.5" ry="12.5" style="stroke:#181818;stroke-width:0.5;" width="195" x="525.41" y="61.82"/><line style="stroke:#181818;stroke-width:0.5;" x1="525.41" x2="720.41" y1="83.1169" y2="83.1169"/><text fill="#000000" font-family="sans-serif" font-size="14" lengthAdjust="spacing" textLength="7" x="619.41" y="78.8151">_</text></g><g id="B.B1"><rect fill="#F1F1F1" height="50" rx="12.5" ry="12.5" style="stroke:#181818;stroke-width:0.5;" width="54.1045" x="650.36" y="115.82"/><line style="stroke:#181818;stroke-width:0.5;" x1="650.36" x2="704.4645" y1="142.1169" y2="142.1169"/><text fill="#000000" font-family="sans-serif" font-size="14" lengthAdjust="spacing" textLength="34.1045" x="660.36" y="133.8151">login</text></g><g id="B.B2"><rect fill="#F1F1F1" height="50" rx="12.5" ry="12.5" style="stroke:#181818;stroke-width:0.5;" width="74.2979" x="541.26" y="115.82"/><line style="stroke:#181818;stroke-width:0.5;" x1="541.26" x2="615.5579" y1="142.1169" y2="142.1169"/><text fill="#000000" font-family="sans-serif" font-size="14" lengthAdjust="spacing" textLength="54.2979" x="551.26" y="133.8151">register</text></g><g id="A1"><rect fill="#F1F1F1" height="50" rx="12.5" ry="12.5" style="stroke:#181818;stroke-width:0.5;" width="59.6895" x="327.57" y="115.82"/><line style="stroke:#181818;stroke-width:0.5;" x1="327.57" x2="387.2595" y1="142.1169" y2="142.1169"/><text fill="#000000" font-family="sans-serif" font-size="14" lengthAdjust="spacing" textLength="39.6895" x="337.57" y="133.8151">home</text></g><g id="A3"><rect fill="#F1F1F1" height="50" rx="12.5" ry="12.5" style="stroke:#181818;stroke-width:0.5;" width="83.4307" x="422.7" y="115.82"/><line style="stroke:#181818;stroke-width:0.5;" x1="422.7" x2="506.1307" y1="142.1169" y2="142.1169"/><text fill="#000000" font-family="sans-serif" font-size="14" lengthAdjust="spacing" textLength="63.4307" x="432.7" y="133.8151">code join</text></g><path d="M152.28,91.67 L280.54,91.67 A12.5,12.5 0 0 1 293.04,104.17 L293.04,117.9669 L139.78,117.9669 L139.78,104.17 A12.5,12.5 0 0 1 152.28,91.67 " fill="#F1F1F1" style="stroke:#F1F1F1;stroke-width:1.0;"/><rect fill="none" height="98.2969" rx="12.5" ry="12.5" style="stroke:#181818;stroke-width:0.5;" width="153.26" x="139.78" y="91.67"/><line style="stroke:#181818;stroke-width:0.5;" x1="139.78" x2="293.04" y1="117.9669" y2="117.9669"/><text fill="#000000" font-family="sans-serif" font-size="14" lengthAdjust="spacing" textLength="55.8291" x="188.4954" y="109.6651">settings</text><g id="C.C1"><rect fill="#F1F1F1" height="50" rx="12.5" ry="12.5" style="stroke:#181818;stroke-width:0.5;" width="64.5293" x="151.78" y="129.9669"/><line style="stroke:#181818;stroke-width:0.5;" x1="151.78" x2="216.3093" y1="156.2637" y2="156.2637"/><text fill="#000000" font-family="sans-serif" font-size="14" lengthAdjust="spacing" textLength="44.5293" x="161.78" y="147.962">profile</text></g><g id="C.C2"><rect fill="#F1F1F1" height="50" rx="12.5" ry="12.5" style="stroke:#181818;stroke-width:0.5;" width="50" x="234.04" y="129.9669"/><line style="stroke:#181818;stroke-width:0.5;" x1="234.04" x2="284.04" y1="156.2637" y2="156.2637"/><text fill="#000000" font-family="sans-serif" font-size="14" lengthAdjust="spacing" textLength="26.3525" x="245.8637" y="147.962">app</text></g><g id="A4"><rect fill="#F1F1F1" height="64.2344" rx="12.5" ry="12.5" style="stroke:#181818;stroke-width:0.5;" width="329.9258" x="499.45" y="284"/><line style="stroke:#181818;stroke-width:0.5;" x1="499.45" x2="829.3758" y1="310.2969" y2="310.2969"/><text fill="#000000" font-family="sans-serif" font-size="14" lengthAdjust="spacing" textLength="96.667" x="616.0794" y="301.9951">input yourself</text><text fill="#000000" font-family="sans-serif" font-size="12" lengthAdjust="spacing" textLength="164.209" x="504.45" y="326.4355">you add  table and position</text><text fill="#000000" font-family="sans-serif" font-size="12" lengthAdjust="spacing" textLength="309.9258" x="504.45" y="340.4043">add name, cid, ect when you as a guest (for future)</text></g><path d="M225.02,426.26 L529.7961,426.26 A12.5,12.5 0 0 1 542.2961,438.76 L542.2961,452.5569 L212.52,452.5569 L212.52,438.76 A12.5,12.5 0 0 1 225.02,426.26 " fill="#F1F1F1" style="stroke:#F1F1F1;stroke-width:1.0;"/><rect fill="none" height="184.2969" rx="12.5" ry="12.5" style="stroke:#181818;stroke-width:0.5;" width="329.7761" x="212.52" y="426.26"/><line style="stroke:#181818;stroke-width:0.5;" x1="212.52" x2="542.2961" y1="452.5569" y2="452.5569"/><text fill="#000000" font-family="sans-serif" font-size="14" lengthAdjust="spacing" textLength="74.1836" x="340.3162" y="444.2551">turnament</text><g id="D.D0"><rect fill="#F1F1F1" height="50" rx="12.5" ry="12.5" style="stroke:#181818;stroke-width:0.5;" width="86.0625" x="336.27" y="464.5569"/><line style="stroke:#181818;stroke-width:0.5;" x1="336.27" x2="422.3325" y1="490.8537" y2="490.8537"/><text fill="#000000" font-family="sans-serif" font-size="14" lengthAdjust="spacing" textLength="66.0625" x="346.27" y="482.552">summary</text></g><g id="D.D1"><rect fill="#F1F1F1" height="50" rx="12.5" ry="12.5" style="stroke:#181818;stroke-width:0.5;" width="93.5615" x="224.52" y="550.5569"/><line style="stroke:#181818;stroke-width:0.5;" x1="224.52" x2="318.0815" y1="576.8538" y2="576.8538"/><text fill="#000000" font-family="sans-serif" font-size="14" lengthAdjust="spacing" textLength="73.5615" x="234.52" y="568.552">info recive</text></g><g id="D.D2"><rect fill="#F1F1F1" height="50" rx="12.5" ry="12.5" style="stroke:#181818;stroke-width:0.5;" width="87.1016" x="335.75" y="550.5569"/><line style="stroke:#181818;stroke-width:0.5;" x1="335.75" x2="422.8516" y1="576.8538" y2="576.8538"/><text fill="#000000" font-family="sans-serif" font-size="14" lengthAdjust="spacing" textLength="67.1016" x="345.75" y="568.552">movment</text></g><g id="D.D3"><rect fill="#F1F1F1" height="50" rx="12.5" ry="12.5" style="stroke:#181818;stroke-width:0.5;" width="91.9961" x="441.3" y="550.5569"/><line style="stroke:#181818;stroke-width:0.5;" x1="441.3" x2="533.2961" y1="576.8538" y2="576.8538"/><text fill="#000000" font-family="sans-serif" font-size="14" lengthAdjust="spacing" textLength="71.9961" x="451.3" y="568.552">input data</text></g><!--link D0 to D1--><g id="link_D0_D1"><path d="M354.25,514.8569 C340.67,525.9969 328.556,535.6118 313.476,546.7518 " fill="none" id="D0-to-D1" style="stroke:#181818;stroke-width:1.0;"/><polygon fill="#181818" points="308.65,550.3169,318.2657,548.1866,312.6717,547.346,313.5123,541.7519,308.65,550.3169" style="stroke:#181818;stroke-width:1.0;"/></g><!--link D0 to D2--><g id="link_D0_D2"><path d="M385.49,514.8569 C386.24,525.9969 386.6484,533.1908 385.8884,544.3308 " fill="none" id="D0-to-D2" style="stroke:#181818;stroke-width:1.0;"/><polygon fill="#181818" points="385.48,550.3169,390.0833,541.61,385.8203,545.3285,382.1019,541.0655,385.48,550.3169" style="stroke:#181818;stroke-width:1.0;"/></g><!--link D0 to D3--><g id="link_D0_D3"><path d="M416.72,514.8569 C431.81,525.9969 444.1125,535.3698 457.6825,546.5098 " fill="none" id="D0-to-D3" style="stroke:#181818;stroke-width:1.0;"/><polygon fill="#181818" points="462.32,550.3169,457.9018,541.5146,458.4554,547.1443,452.8257,547.698,462.32,550.3169" style="stroke:#181818;stroke-width:1.0;"/></g><!--reverse link D0 to D1--><g id="link_D0_D1"><path d="M337.0529,518.4204 C321.9629,529.5604 309.85,539.1769 296.29,550.3169 " fill="none" id="D0-backto-D1" style="stroke:#181818;stroke-width:1.0;"/><polygon fill="#181818" points="341.88,514.8569,332.2636,516.9841,337.8574,517.8265,337.015,523.4203,341.88,514.8569" style="stroke:#181818;stroke-width:1.0;"/></g><!--reverse link D0 to D2--><g id="link_D0_D2"><path d="M372.707,520.8433 C371.957,531.9833 372.36,539.1769 373.12,550.3169 " fill="none" id="D0-backto-D2" style="stroke:#181818;stroke-width:1.0;"/><polygon fill="#181818" points="373.11,514.8569,368.5145,523.5679,372.7741,519.8456,376.4964,524.1052,373.11,514.8569" style="stroke:#181818;stroke-width:1.0;"/></g><!--reverse link D0 to D3--><g id="link_D0_D3"><path d="M408.9889,518.6623 C422.5689,529.8023 434.87,539.1769 449.95,550.3169 " fill="none" id="D0-backto-D3" style="stroke:#181818;stroke-width:1.0;"/><polygon fill="#181818" points="404.35,514.8569,408.7714,523.6575,408.2157,518.028,413.8452,517.4724,404.35,514.8569" style="stroke:#181818;stroke-width:1.0;"/></g><path d="M19.5,266.97 L275.322,266.97 A12.5,12.5 0 0 1 287.822,279.47 L287.822,293.2669 L7,293.2669 L7,279.47 A12.5,12.5 0 0 1 19.5,266.97 " fill="#F1F1F1" style="stroke:#F1F1F1;stroke-width:1.0;"/><rect fill="none" height="98.2969" rx="12.5" ry="12.5" style="stroke:#181818;stroke-width:0.5;" width="280.822" x="7" y="266.97"/><line style="stroke:#181818;stroke-width:0.5;" x1="7" x2="287.822" y1="293.2669" y2="293.2669"/><text fill="#000000" font-family="sans-serif" font-size="14" lengthAdjust="spacing" textLength="43.8662" x="125.4779" y="284.9651">admin</text><g id="E.E1"><rect fill="#F1F1F1" height="50" rx="12.5" ry="12.5" style="stroke:#181818;stroke-width:0.5;" width="123.5576" x="19" y="305.2669"/><line style="stroke:#181818;stroke-width:0.5;" x1="19" x2="142.5576" y1="331.5637" y2="331.5637"/><text fill="#000000" font-family="sans-serif" font-size="14" lengthAdjust="spacing" textLength="103.5576" x="29" y="323.262">Edit input data</text></g><g id="E.E2"><rect fill="#F1F1F1" height="50" rx="12.5" ry="12.5" style="stroke:#181818;stroke-width:0.5;" width="118.082" x="160.74" y="305.2669"/><line style="stroke:#181818;stroke-width:0.5;" x1="160.74" x2="278.822" y1="331.5637" y2="331.5637"/><text fill="#000000" font-family="sans-serif" font-size="14" lengthAdjust="spacing" textLength="98.082" x="170.74" y="323.262">Edit user data</text></g><!--link B2 to B1--><g id="link_B2_B1"><path d="M615.92,158.47 C627.29,160.55 632.977,161.5943 644.347,157.7443 " fill="none" id="B2-to-B1" style="stroke:#181818;stroke-width:1.0;"/><polygon fill="#181818" points="650.03,155.82,640.2226,154.9178,645.2941,157.4236,642.7883,162.4952,650.03,155.82" style="stroke:#181818;stroke-width:1.0;"/></g><!--link B1 to B2--><g id="link_B1_B2"><path d="M650.03,125.81 C638.66,121.96 633.1911,119.9953 621.8211,122.0853 " fill="none" id="B1-to-B2" style="stroke:#181818;stroke-width:1.0;"/><polygon fill="#181818" points="615.92,123.17,625.4949,125.477,620.8376,122.2661,624.0485,117.6088,615.92,123.17" style="stroke:#181818;stroke-width:1.0;"/></g><!--link A1 to B1--><g id="link_A1_B1"><path d="M365.24,115.43 C372.57,95.8 385.43,69.44 405.41,53.82 C426.07,37.67 436.42,42.03 462.41,38.63 C538.06,28.72 573.95,6 633.41,53.82 C652.8,69.41 662.5728,90.0747 668.9628,109.7047 " fill="none" id="A1-to-B1" style="stroke:#181818;stroke-width:1.0;"/><polygon fill="#181818" points="670.82,115.41,671.8377,105.6139,669.2723,110.6556,664.2306,108.0901,670.82,115.41" style="stroke:#181818;stroke-width:1.0;"/><text fill="#000000" font-family="sans-serif" font-size="13" lengthAdjust="spacing" textLength="110.3286" x="463.41" y="26.8869">guest is consider</text><text fill="#000000" font-family="sans-serif" font-size="13" lengthAdjust="spacing" textLength="76.2544" x="482.5133" y="42.0197">a login user</text></g><!--reverse link A1 to B1--><g id="link_A1_B1"><path d="M366.0444,109.7103 C374.6344,83.5903 390.54,50.79 422.91,38.82 C463.14,23.94 575.69,23.94 615.91,38.82 C647.72,50.58 664.01,89.14 671.61,115.32 " fill="none" id="A1-backto-B1" style="stroke:#181818;stroke-width:1.0;"/><polygon fill="#181818" points="364.17,115.41,370.7815,108.1101,365.732,110.6603,363.1819,105.6108,364.17,115.41" style="stroke:#181818;stroke-width:1.0;"/></g><!--link C to A1--><g id="link_C_A1"><path d="M293.52,177.36 C304.83,176.25 311.0099,175.385 322.3199,168.575 " fill="none" id="C-to-A1" style="stroke:#181818;stroke-width:1.0;"/><polygon fill="#181818" points="327.46,165.48,317.6865,166.6957,323.1766,168.0592,321.8131,173.5492,327.46,165.48" style="stroke:#181818;stroke-width:1.0;"/></g><!--reverse link C to A1--><g id="link_C_A1"><path d="M299.4913,104.866 C310.8013,105.976 316.15,109.35 327.46,116.15 " fill="none" id="C-backto-A1" style="stroke:#181818;stroke-width:1.0;"/><polygon fill="#181818" points="293.52,104.28,302.0863,109.1399,298.4961,104.7684,302.8677,101.1782,293.52,104.28" style="stroke:#181818;stroke-width:1.0;"/></g><!--link A3 to A4--><g id="link_A3_A4"><path d="M492.64,166.28 C528.18,197.07 584.7254,246.0709 623.6654,279.8109 " fill="none" id="A3-to-A4" style="stroke:#181818;stroke-width:1.0;"/><polygon fill="#181818" points="628.2,283.74,624.0175,274.8234,624.4212,280.4658,618.7787,280.8695,628.2,283.74" style="stroke:#181818;stroke-width:1.0;"/></g><!--link A4 to D--><g id="link_A4_D"><path d="M619.25,348.63 C589.26,369.56 553.1397,394.7655 513.3897,422.5155 " fill="none" id="A4-to-D" style="stroke:#181818;stroke-width:1.0;"/><polygon fill="#181818" points="508.47,425.95,518.1393,424.078,512.5698,423.0879,513.5599,417.5184,508.47,425.95" style="stroke:#181818;stroke-width:1.0;"/></g><!--link A1 to A3--><g id="link_A1_A3"><path d="M387.5,155.98 C399.12,159.54 404.8063,161.3393 416.4163,159.5993 " fill="none" id="A1-to-A3" style="stroke:#181818;stroke-width:1.0;"/><polygon fill="#181818" points="422.35,158.71,412.8565,156.0881,417.4052,159.4511,414.0423,163.9998,422.35,158.71" style="stroke:#181818;stroke-width:1.0;"/></g><!--link A3 to A1--><g id="link_A3_A1"><path d="M422.35,122.93 C410.74,121.18 404.8554,120.3279 393.2354,123.8979 " fill="none" id="A3-to-A1" style="stroke:#181818;stroke-width:1.0;"/><polygon fill="#181818" points="387.5,125.66,397.2779,126.8405,392.2795,124.1916,394.9284,119.1933,387.5,125.66" style="stroke:#181818;stroke-width:1.0;"/></g><!--link D to A1--><g id="link_D_A1"><path d="M372.53,425.8 C367.97,340.07 361.7686,223.6915 359.0286,172.1615 " fill="none" id="D-to-A1" style="stroke:#181818;stroke-width:1.0;"/><polygon fill="#181818" points="358.71,166.17,355.1935,175.3697,358.9755,171.1629,363.1822,174.9449,358.71,166.17" style="stroke:#181818;stroke-width:1.0;"/><text fill="#000000" font-family="sans-serif" font-size="13" lengthAdjust="spacing" textLength="105.3711" x="370.41" y="320.6769">exit tournament</text></g><!--link A1 to E--><g id="link_A1_E"><path d="M337.78,166.2 C329.98,174.65 320.48,183.59 310.41,189.97 C275.86,211.86 256.83,196.39 223.41,219.97 C205.79,232.4 193.7348,245.2186 181.2848,261.9286 " fill="none" id="A1-to-E" style="stroke:#181818;stroke-width:1.0;"/><polygon fill="#181818" points="177.7,266.74,186.2848,261.9128,180.6873,262.7305,179.8696,257.1331,177.7,266.74" style="stroke:#181818;stroke-width:1.0;"/><text fill="#000000" font-family="sans-serif" font-size="13" lengthAdjust="spacing" textLength="106.3296" x="224.41" y="233.0369">only for "admin"</text></g><!--SRC=[LL9DRuCm3BtpAomk-z2G1lHKLPKOxI_OSPkcZ9Ws4oGe2TkggVzzJapLZ0lnyukV_PndBpp24mW7-Nl-cm5zZh4oWeCvA9sdU1LnYmVbF5fA4L9iYP-5E-5KPUSiQ_XShWypEW_AGMUqKnBjgmO1iIxC3crWRefm_-OvAZHHGFHKdMdK5sittDFHZ9XVe3f2dP48doQqodWROOVUAtrm_oPhkSfaJQy6J6ThUJOnJJcDSFDo_rPiMrX3Ryq8tM0SWZSWXW4cagAXQ99fkdIoYfULdcOF9pDRXqFFrI4aruI1a1B0Yuy1GMX9PPpookY45IbQZFW0dP8FW9s7xoDgYDSTMSU6tlR6GZ_xsU9TrWQlcvB-v2JzWor5W5PPA4h7NGQyaQRcx3RGTimgIHP_bAVfPXkqjL-6siMP_0Lb7vVK8riyZwEmfpn9b8iHlG6BdVh2DCaMZ-OhraiITMAV55x478c43dTb6bHfK2_1fYYkj1XKQL3JGbbeppkMOtnOr-NlkUszL66n_xguCAeh8xpSXN2ERvrwsSFQwE44OJEBm1y0]--></g></svg>