<svg xmlns="http://www.w3.org/2000/svg" xmlns:xlink="http://www.w3.org/1999/xlink" contentStyleType="text/css" height="676px" preserveAspectRatio="none" style="width:832px;height:676px;background:#FFFFFF;" version="1.1" viewBox="0 0 832 676" width="832px" zoomAndPan="magnify"><defs/><g><!--cluster B--><g id="cluster_B"><path d="M221.39,49.05 L391.39,49.05 A12.5,12.5 0 0 1 403.89,61.55 L403.89,70.3469 L208.89,70.3469 L208.89,61.55 A12.5,12.5 0 0 1 221.39,49.05 " fill="#F1F1F1" style="stroke:#F1F1F1;stroke-width:1.0;"/><rect fill="none" height="101" rx="12.5" ry="12.5" style="stroke:#181818;stroke-width:0.5;" width="195" x="208.89" y="49.05"/><line style="stroke:#181818;stroke-width:0.5;" x1="208.89" x2="403.89" y1="70.3469" y2="70.3469"/><text fill="#000000" font-family="sans-serif" font-size="14" lengthAdjust="spacing" textLength="75.3047" x="268.89" y="66.0451">befor login</text></g><g id="B.B1"><rect fill="#F1F1F1" height="50" rx="12.5" ry="12.5" style="stroke:#181818;stroke-width:0.5;" width="54.1045" x="224.84" y="84.05"/><line style="stroke:#181818;stroke-width:0.5;" x1="224.84" x2="278.9445" y1="110.3469" y2="110.3469"/><text fill="#000000" font-family="sans-serif" font-size="14" lengthAdjust="spacing" textLength="34.1045" x="234.84" y="102.0451">login</text></g><g id="B.B2"><rect fill="#F1F1F1" height="50" rx="12.5" ry="12.5" style="stroke:#181818;stroke-width:0.5;" width="74.2979" x="313.74" y="84.05"/><line style="stroke:#181818;stroke-width:0.5;" x1="313.74" x2="388.0379" y1="110.3469" y2="110.3469"/><text fill="#000000" font-family="sans-serif" font-size="14" lengthAdjust="spacing" textLength="54.2979" x="323.74" y="102.0451">register</text></g><g id="A1"><rect fill="#F1F1F1" height="50" rx="12.5" ry="12.5" style="stroke:#181818;stroke-width:0.5;" width="59.6895" x="222.04" y="250.2"/><line style="stroke:#181818;stroke-width:0.5;" x1="222.04" x2="281.7295" y1="276.4969" y2="276.4969"/><text fill="#000000" font-family="sans-serif" font-size="14" lengthAdjust="spacing" textLength="39.6895" x="232.04" y="268.1951">home</text></g><g id="A3"><rect fill="#F1F1F1" height="50" rx="12.5" ry="12.5" style="stroke:#181818;stroke-width:0.5;" width="83.4307" x="317.17" y="250.2"/><line style="stroke:#181818;stroke-width:0.5;" x1="317.17" x2="400.6007" y1="276.4969" y2="276.4969"/><text fill="#000000" font-family="sans-serif" font-size="14" lengthAdjust="spacing" textLength="63.4307" x="327.17" y="268.1951">code join</text></g><path d="M677.76,59.9 L806.02,59.9 A12.5,12.5 0 0 1 818.52,72.4 L818.52,86.1969 L665.26,86.1969 L665.26,72.4 A12.5,12.5 0 0 1 677.76,59.9 " fill="#F1F1F1" style="stroke:#F1F1F1;stroke-width:1.0;"/><rect fill="none" height="98.2969" rx="12.5" ry="12.5" style="stroke:#181818;stroke-width:0.5;" width="153.26" x="665.26" y="59.9"/><line style="stroke:#181818;stroke-width:0.5;" x1="665.26" x2="818.52" y1="86.1969" y2="86.1969"/><text fill="#000000" font-family="sans-serif" font-size="14" lengthAdjust="spacing" textLength="55.8291" x="713.9754" y="77.8951">settings</text><g id="C.C1"><rect fill="#F1F1F1" height="50" rx="12.5" ry="12.5" style="stroke:#181818;stroke-width:0.5;" width="64.5293" x="677.26" y="98.1969"/><line style="stroke:#181818;stroke-width:0.5;" x1="677.26" x2="741.7893" y1="124.4937" y2="124.4937"/><text fill="#000000" font-family="sans-serif" font-size="14" lengthAdjust="spacing" textLength="44.5293" x="687.26" y="116.192">profile</text></g><g id="C.C2"><rect fill="#F1F1F1" height="50" rx="12.5" ry="12.5" style="stroke:#181818;stroke-width:0.5;" width="50" x="759.52" y="98.1969"/><line style="stroke:#181818;stroke-width:0.5;" x1="759.52" x2="809.52" y1="124.4937" y2="124.4937"/><text fill="#000000" font-family="sans-serif" font-size="14" lengthAdjust="spacing" textLength="26.3525" x="771.3437" y="116.192">app</text></g><ellipse cx="432.89" cy="109.05" fill="#222222" rx="10" ry="10" style="stroke:#222222;stroke-width:1.0;"/><g id="A4"><rect fill="#F1F1F1" height="64.2344" rx="12.5" ry="12.5" style="stroke:#181818;stroke-width:0.5;" width="329.9258" x="293.93" y="361.2"/><line style="stroke:#181818;stroke-width:0.5;" x1="293.93" x2="623.8558" y1="387.4969" y2="387.4969"/><text fill="#000000" font-family="sans-serif" font-size="14" lengthAdjust="spacing" textLength="96.667" x="410.5594" y="379.1951">input yourself</text><text fill="#000000" font-family="sans-serif" font-size="12" lengthAdjust="spacing" textLength="164.209" x="298.93" y="403.6355">you add  table and position</text><text fill="#000000" font-family="sans-serif" font-size="12" lengthAdjust="spacing" textLength="309.9258" x="298.93" y="417.6043">add name, cid, ect when you as a guest (for future)</text></g><path d="M19.5,486.43 L324.2761,486.43 A12.5,12.5 0 0 1 336.7761,498.93 L336.7761,512.7269 L7,512.7269 L7,498.93 A12.5,12.5 0 0 1 19.5,486.43 " fill="#F1F1F1" style="stroke:#F1F1F1;stroke-width:1.0;"/><rect fill="none" height="184.2969" rx="12.5" ry="12.5" style="stroke:#181818;stroke-width:0.5;" width="329.7761" x="7" y="486.43"/><line style="stroke:#181818;stroke-width:0.5;" x1="7" x2="336.7761" y1="512.7269" y2="512.7269"/><text fill="#000000" font-family="sans-serif" font-size="14" lengthAdjust="spacing" textLength="74.1836" x="134.7963" y="504.4251">turnament</text><g id="D.D0"><rect fill="#F1F1F1" height="50" rx="12.5" ry="12.5" style="stroke:#181818;stroke-width:0.5;" width="86.0625" x="130.75" y="524.7269"/><line style="stroke:#181818;stroke-width:0.5;" x1="130.75" x2="216.8125" y1="551.0238" y2="551.0238"/><text fill="#000000" font-family="sans-serif" font-size="14" lengthAdjust="spacing" textLength="66.0625" x="140.75" y="542.722">summary</text></g><g id="D.D1"><rect fill="#F1F1F1" height="50" rx="12.5" ry="12.5" style="stroke:#181818;stroke-width:0.5;" width="93.5615" x="19" y="610.7269"/><line style="stroke:#181818;stroke-width:0.5;" x1="19" x2="112.5615" y1="637.0238" y2="637.0238"/><text fill="#000000" font-family="sans-serif" font-size="14" lengthAdjust="spacing" textLength="73.5615" x="29" y="628.722">info recive</text></g><g id="D.D2"><rect fill="#F1F1F1" height="50" rx="12.5" ry="12.5" style="stroke:#181818;stroke-width:0.5;" width="87.1016" x="130.23" y="610.7269"/><line style="stroke:#181818;stroke-width:0.5;" x1="130.23" x2="217.3316" y1="637.0238" y2="637.0238"/><text fill="#000000" font-family="sans-serif" font-size="14" lengthAdjust="spacing" textLength="67.1016" x="140.23" y="628.722">movment</text></g><g id="D.D3"><rect fill="#F1F1F1" height="50" rx="12.5" ry="12.5" style="stroke:#181818;stroke-width:0.5;" width="91.9961" x="235.78" y="610.7269"/><line style="stroke:#181818;stroke-width:0.5;" x1="235.78" x2="327.7761" y1="637.0238" y2="637.0238"/><text fill="#000000" font-family="sans-serif" font-size="14" lengthAdjust="spacing" textLength="71.9961" x="245.78" y="628.722">input data</text></g><!--link D0 to D1--><g id="link_D0_D1"><path d="M148.73,575.0269 C135.15,586.1669 123.036,595.7818 107.956,606.9218 " fill="none" id="D0-to-D1" style="stroke:#181818;stroke-width:1.0;"/><polygon fill="#181818" points="103.13,610.4869,112.7457,608.3566,107.1517,607.516,107.9923,601.9219,103.13,610.4869" style="stroke:#181818;stroke-width:1.0;"/></g><!--link D0 to D2--><g id="link_D0_D2"><path d="M179.97,575.0269 C180.72,586.1669 181.1284,593.3608 180.3684,604.5008 " fill="none" id="D0-to-D2" style="stroke:#181818;stroke-width:1.0;"/><polygon fill="#181818" points="179.96,610.4869,184.5633,601.78,180.3003,605.4985,176.5819,601.2355,179.96,610.4869" style="stroke:#181818;stroke-width:1.0;"/></g><!--link D0 to D3--><g id="link_D0_D3"><path d="M211.2,575.0269 C226.29,586.1669 238.5925,595.5398 252.1625,606.6798 " fill="none" id="D0-to-D3" style="stroke:#181818;stroke-width:1.0;"/><polygon fill="#181818" points="256.8,610.4869,252.3818,601.6846,252.9354,607.3143,247.3057,607.868,256.8,610.4869" style="stroke:#181818;stroke-width:1.0;"/></g><!--reverse link D0 to D1--><g id="link_D0_D1"><path d="M131.5329,578.5904 C116.4429,589.7304 104.33,599.3469 90.77,610.4869 " fill="none" id="D0-backto-D1" style="stroke:#181818;stroke-width:1.0;"/><polygon fill="#181818" points="136.36,575.0269,126.7436,577.1541,132.3374,577.9965,131.495,583.5903,136.36,575.0269" style="stroke:#181818;stroke-width:1.0;"/></g><!--reverse link D0 to D2--><g id="link_D0_D2"><path d="M167.187,581.0133 C166.437,592.1533 166.84,599.3469 167.6,610.4869 " fill="none" id="D0-backto-D2" style="stroke:#181818;stroke-width:1.0;"/><polygon fill="#181818" points="167.59,575.0269,162.9945,583.7379,167.2541,580.0156,170.9764,584.2752,167.59,575.0269" style="stroke:#181818;stroke-width:1.0;"/></g><!--reverse link D0 to D3--><g id="link_D0_D3"><path d="M203.4689,578.8323 C217.0489,589.9723 229.35,599.3469 244.43,610.4869 " fill="none" id="D0-backto-D3" style="stroke:#181818;stroke-width:1.0;"/><polygon fill="#181818" points="198.83,575.0269,203.2514,583.8275,202.6957,578.198,208.3252,577.6424,198.83,575.0269" style="stroke:#181818;stroke-width:1.0;"/></g><!--link B1 to B2--><g id="link_B1_B2"><path d="M279.35,124.08 C290.71,127.92 296.1698,129.8797 307.5398,127.7797 " fill="none" id="B1-to-B2" style="stroke:#181818;stroke-width:1.0;"/><polygon fill="#181818" points="313.44,126.69,303.8632,124.3912,308.5232,127.5981,305.3162,132.2581,313.44,126.69" style="stroke:#181818;stroke-width:1.0;"/></g><!--link B2 to B1--><g id="link_B2_B1"><path d="M313.44,91.41 C302.07,89.32 296.394,88.2586 285.034,92.0986 " fill="none" id="B2-to-B1" style="stroke:#181818;stroke-width:1.0;"/><polygon fill="#181818" points="279.35,94.02,289.157,94.9273,284.0867,92.4189,286.5952,87.3486,279.35,94.02" style="stroke:#181818;stroke-width:1.0;"/></g><!--link B1 to A1--><g id="link_B1_A1"><path d="M251.89,134.27 C251.89,165.31 251.89,212.8 251.89,243.88 " fill="none" id="B1-to-A1" style="stroke:#181818;stroke-width:1.0;"/><polygon fill="#181818" points="251.89,249.88,255.89,240.88,251.89,244.88,247.89,240.88,251.89,249.88" style="stroke:#181818;stroke-width:1.0;"/><text fill="#000000" font-family="sans-serif" font-size="13" lengthAdjust="spacing" textLength="110.3286" x="252.89" y="201.2669">guest is consider</text><text fill="#000000" font-family="sans-serif" font-size="13" lengthAdjust="spacing" textLength="76.2544" x="271.9933" y="216.3997">a login user</text></g><!--link *start* to C--><g id="link_*start*_C"><path d="M443.17,109.05 C477.2,109.05 582.39,109.05 659.07,109.05 " fill="none" id="*start*-to-C" style="stroke:#181818;stroke-width:1.0;"/><polygon fill="#181818" points="665.07,109.05,656.07,105.05,660.07,109.05,656.07,113.05,665.07,109.05" style="stroke:#181818;stroke-width:1.0;"/><text fill="#000000" font-family="sans-serif" font-size="13" lengthAdjust="spacing" textLength="186.5322" x="461.07" y="102.1169">from close to all point in app</text></g><!--link C to B1--><g id="link_C_B1"><path d="M664.86,81.41 C605.28,61.56 520.27,36.54 443.39,26.05 C386.14,18.24 367.58,6 313.39,26.05 C287.82,35.51 273.4257,57.5437 263.9257,78.3137 " fill="none" id="C-to-B1" style="stroke:#181818;stroke-width:1.0;"/><polygon fill="#181818" points="261.43,83.77,268.8111,77.2493,263.5097,79.2231,261.536,73.9217,261.43,83.77" style="stroke:#181818;stroke-width:1.0;"/></g><!--link A3 to A4--><g id="link_A3_A4"><path d="M379.85,300.54 C394.97,318.1 411.5952,337.4031 427.9452,356.3931 " fill="none" id="A3-to-A4" style="stroke:#181818;stroke-width:1.0;"/><polygon fill="#181818" points="431.86,360.94,429.0191,351.5098,428.5977,357.1509,422.9565,356.7295,431.86,360.94" style="stroke:#181818;stroke-width:1.0;"/></g><!--link A4 to D--><g id="link_A4_D"><path d="M409.55,425.82 C383.19,442.66 354.2869,461.1108 320.3369,482.7908 " fill="none" id="A4-to-D" style="stroke:#181818;stroke-width:1.0;"/><polygon fill="#181818" points="315.28,486.02,325.0181,484.5474,319.4941,483.329,320.7125,477.8049,315.28,486.02" style="stroke:#181818;stroke-width:1.0;"/></g><!--link A1 to A3--><g id="link_A1_A3"><path d="M281.98,290.36 C293.6,293.92 299.2762,295.7185 310.8962,293.9785 " fill="none" id="A1-to-A3" style="stroke:#181818;stroke-width:1.0;"/><polygon fill="#181818" points="316.83,293.09,307.3369,290.4669,311.8851,293.8305,308.5216,298.3787,316.83,293.09" style="stroke:#181818;stroke-width:1.0;"/></g><!--link A3 to A1--><g id="link_A3_A1"><path d="M316.83,257.31 C305.21,255.57 299.3368,254.7224 287.7168,258.2824 " fill="none" id="A3-to-A1" style="stroke:#181818;stroke-width:1.0;"/><polygon fill="#181818" points="281.98,260.04,291.7569,261.2282,286.7607,258.5754,289.4135,253.5791,281.98,260.04" style="stroke:#181818;stroke-width:1.0;"/></g><!--link D to A1--><g id="link_D_A1"><path d="M155.73,485.98 C152.56,446.3 154.17,400.13 169.89,361.2 C180.33,335.34 198.1673,316.7585 216.9573,301.4585 " fill="none" id="D-to-A1" style="stroke:#181818;stroke-width:1.0;"/><polygon fill="#181818" points="221.61,297.67,212.1053,300.251,217.7328,300.8271,217.1567,306.4545,221.61,297.67" style="stroke:#181818;stroke-width:1.0;"/><text fill="#000000" font-family="sans-serif" font-size="13" lengthAdjust="spacing" textLength="105.3711" x="170.89" y="397.8869">exit tournament</text></g><!--SRC=[LL7BReCm4BpxArPS-b2GIiWfgY9HyWSvjZqui11NO2DxIHjL-VUkRTAwFdbdrhCxumD9GdW1wI0xOcSi3APNEliMmCT5jWXq959y7N2BlNA4bYdkp7UC2y_vMo6kGdYKYwhOzZCw0kMWCTgf5ksR1XadmkpGYhj3KAw2iEnOzNUVEBEAkvpCYDaDAWFKc1RXm_WL8ru7s26HqhtxvwYEAfCrdHemzLH7JtAQCbxzzV4ztzMmXSwQ4Ph1E0Go88S19fx4LdZ_QRejiWblbPvcWekPhSEXY-BWoIrZ8DiMWEHnG92wPHcdI1cTT8KMBKTSGQFQ5M13y7b23U6vuy1YZFV-jxgPPeiFebxYzcc4i3V2Y_5rBtne7YeZkwkuRRzy2O_3BqNiQhP-fgR5p3vueHiQurkefvZiF8xINhA4A9O0EWCM6tN6b8p9ZkOSz1AYJ69h9Sd0yH2_uRv8YtLQb4lndET_RQ5OfqKfhZy0]--></g></svg>